<?xml version="1.0" encoding="iso-8859-1"?>
<!-- Generator: Adobe Illustrator 19.0.0, SVG Export Plug-In . SVG Version: 6.00 Build 0)  -->
<svg version="1.1" id="Capa_1" xmlns="http://www.w3.org/2000/svg" xmlns:xlink="http://www.w3.org/1999/xlink" x="0px" y="0px"
	 viewBox="0 0 512 512" style="enable-background:new 0 0 512 512;" xml:space="preserve">
<path style="fill:#FF598B;" d="M497,80.333h-65.334V15c0-8.284-6.716-15-15-15s-15,6.716-15,15v65.333h-65.332
	c-8.284,0-15,6.716-15,15s6.716,15,15,15h65.332v65.334c0,8.284,6.716,15,15,15s15-6.716,15-15v-65.334H497c8.284,0,15-6.716,15-15
	S505.284,80.333,497,80.333z"/>
<path style="fill:#09426D;" d="M175.666,321.334C78.804,321.334,0,400.138,0,497c0,8.284,6.716,15,15,15h321.334
	c8.284,0,15-6.716,15-15C351.334,400.138,272.529,321.334,175.666,321.334z"/>
<path style="fill:#A46343;" d="M175.666,64.267c-52.566,0-95.332,42.767-95.332,95.334c0,52.566,42.766,95.333,95.332,95.333
	c52.567,0,95.334-42.767,95.334-95.333C271,107.033,228.233,64.267,175.666,64.267z"/>
<path style="fill:#E6293F;" d="M497,80.333h-65.334V15c0-8.284-6.716-14.999-14.999-15v190.667c8.283,0,14.999-6.717,14.999-15
	v-65.334H497c8.284,0,15-6.716,15-15S505.284,80.333,497,80.333z"/>
<path style="fill:#012641;" d="M175.667,321.334V512h160.667c8.284,0,15-6.716,15-15
	C351.334,400.138,272.53,321.335,175.667,321.334z"/>
<path style="fill:#84493B;" d="M271,159.601c0-52.566-42.767-95.334-95.333-95.334v190.667C228.233,254.933,271,212.167,271,159.601
	z"/>
<g>
</g>
<g>
</g>
<g>
</g>
<g>
</g>
<g>
</g>
<g>
</g>
<g>
</g>
<g>
</g>
<g>
</g>
<g>
</g>
<g>
</g>
<g>
</g>
<g>
</g>
<g>
</g>
<g>
</g>
</svg>
